<svg width="374" height="81" viewBox="0 0 374 81" fill="none" xmlns="http://www.w3.org/2000/svg">
<rect x="0.5" y="19.5" width="59" height="59" fill="black" stroke="#fff"/>
<rect x="4.5" y="23.5" width="51" height="51" fill="black" stroke="#fff"/>
<line x1="5" y1="46.5" x2="56" y2="46.5" stroke="#fff"/>
<line x1="5" y1="50.5" x2="56" y2="50.5" stroke="#fff"/>
<path d="M28.6934 43.2407C29.1019 41.5864 31.4536 41.5864 31.8621 43.2407V43.2407C32.1082 44.2372 33.2038 44.7611 34.1349 44.3291V44.3291C35.6759 43.6141 37.1575 45.426 36.1443 46.7896L36.071 46.8883C35.4588 47.7122 35.7405 48.8947 36.6504 49.3699V49.3699C38.1694 50.1632 37.6678 52.4796 35.9545 52.5201V52.5201C34.9293 52.5444 34.1718 53.4877 34.3724 54.4934L34.3916 54.5898C34.723 56.2517 32.6094 57.2491 31.5372 55.9367V55.9367C30.8865 55.1402 29.6691 55.1402 29.0183 55.9367V55.9367C27.9462 57.2491 25.8326 56.2517 26.164 54.5898L26.1832 54.4934C26.3837 53.4877 25.6262 52.5444 24.601 52.5201V52.5201C22.8878 52.4796 22.3861 50.1632 23.9052 49.3699V49.3699C24.815 48.8947 25.0968 47.7122 24.4846 46.8883L24.4112 46.7896C23.398 45.426 24.8796 43.6141 26.4206 44.3291V44.3291C27.3518 44.7611 28.4474 44.2372 28.6934 43.2407V43.2407Z" fill="#fff"/>
<circle cx="30.5" cy="49.5" r="2.5" fill="#fff"/>
<path d="M69.2216 79V19.3636H90.071C94.2254 19.3636 97.6518 20.0819 100.35 21.5185C103.049 22.9356 105.058 24.8478 106.378 27.255C107.698 29.6428 108.358 32.2926 108.358 35.2045C108.358 37.767 107.902 39.883 106.989 41.5526C106.096 43.2221 104.912 44.5421 103.437 45.5128C101.981 46.4834 100.399 47.2017 98.6903 47.6676V48.25C100.515 48.3665 102.35 49.0071 104.194 50.1719C106.038 51.3366 107.581 53.0062 108.824 55.1804C110.066 57.3546 110.688 60.0142 110.688 63.1591C110.688 66.1487 110.008 68.8374 108.649 71.2251C107.29 73.6129 105.145 75.5057 102.214 76.9034C99.2824 78.3011 95.4678 79 90.7699 79H69.2216ZM76.4432 72.5938H90.7699C95.4872 72.5938 98.8359 71.6813 100.816 69.8565C102.816 68.0123 103.815 65.7798 103.815 63.1591C103.815 61.1402 103.301 59.2765 102.272 57.5682C101.243 55.8404 99.7775 54.4621 97.875 53.4332C95.9725 52.3849 93.7206 51.8608 91.1193 51.8608H76.4432V72.5938ZM76.4432 45.571H89.8381C92.0123 45.571 93.973 45.1439 95.7202 44.2898C97.4867 43.4356 98.8845 42.232 99.9134 40.679C100.962 39.1259 101.486 37.3011 101.486 35.2045C101.486 32.5838 100.573 30.361 98.7486 28.5362C96.9238 26.692 94.0313 25.7699 90.071 25.7699H76.4432V45.571ZM122.554 79V19.3636H129.775V48.9489H130.474L157.264 19.3636H166.699L141.656 46.2699L166.699 79H157.963L137.23 51.2784L129.775 59.6648V79H122.554ZM178.492 79H170.921L192.819 19.3636H200.273L222.171 79H214.6L196.779 28.7983H196.313L178.492 79ZM181.287 55.7045H211.804V62.1108H181.287V55.7045ZM258.716 60.7131V34.2727H265.588V79H258.716V71.429H258.25C257.201 73.7003 255.571 75.6319 253.358 77.2237C251.145 78.7962 248.349 79.5824 244.971 79.5824C242.176 79.5824 239.691 78.9709 237.517 77.7479C235.342 76.5054 233.634 74.6418 232.392 72.157C231.149 69.6527 230.528 66.4981 230.528 62.6932V34.2727H237.4V62.2273C237.4 65.4886 238.313 68.09 240.137 70.0312C241.982 71.9725 244.331 72.9432 247.184 72.9432C248.893 72.9432 250.63 72.5064 252.397 71.6328C254.183 70.7592 255.677 69.4197 256.881 67.6143C258.104 65.8089 258.716 63.5085 258.716 60.7131ZM278.175 79V34.2727H284.814V41.0284H285.28C286.095 38.8153 287.57 37.0196 289.706 35.6413C291.841 34.263 294.248 33.5739 296.927 33.5739C297.432 33.5739 298.063 33.5836 298.82 33.603C299.577 33.6224 300.15 33.6515 300.538 33.6903V40.679C300.305 40.6207 299.771 40.5334 298.937 40.4169C298.121 40.281 297.257 40.2131 296.345 40.2131C294.171 40.2131 292.229 40.6693 290.521 41.5817C288.832 42.4747 287.493 43.7171 286.503 45.3089C285.532 46.8814 285.047 48.6771 285.047 50.696V79H278.175ZM321.846 80.0483C319.012 80.0483 316.44 79.5144 314.13 78.4467C311.819 77.3596 309.985 75.7969 308.626 73.7585C307.267 71.7008 306.588 69.2159 306.588 66.304C306.588 63.7415 307.092 61.6643 308.102 60.0724C309.111 58.4612 310.461 57.1993 312.15 56.2869C313.838 55.3745 315.702 54.6951 317.74 54.2486C319.798 53.7827 321.866 53.4138 323.943 53.142C326.661 52.7926 328.864 52.5305 330.553 52.3558C332.261 52.1617 333.504 51.8414 334.28 51.3949C335.076 50.9484 335.474 50.1719 335.474 49.0653V48.8324C335.474 45.9593 334.688 43.7268 333.115 42.1349C331.562 40.5431 329.204 39.7472 326.039 39.7472C322.759 39.7472 320.186 40.4654 318.323 41.902C316.459 43.3385 315.149 44.8722 314.392 46.5028L307.869 44.1733C309.034 41.4555 310.587 39.3395 312.528 37.8253C314.489 36.2917 316.624 35.224 318.934 34.6222C321.264 34.0009 323.555 33.6903 325.806 33.6903C327.243 33.6903 328.893 33.8651 330.757 34.2145C332.64 34.5445 334.455 35.2337 336.202 36.282C337.969 37.3303 339.434 38.9124 340.599 41.0284C341.764 43.1444 342.346 45.9787 342.346 49.5312V79H335.474V72.9432H335.125C334.659 73.9138 333.882 74.9524 332.795 76.0589C331.708 77.1655 330.262 78.107 328.456 78.8835C326.651 79.66 324.448 80.0483 321.846 80.0483ZM322.895 73.875C325.612 73.875 327.903 73.3411 329.767 72.2734C331.65 71.2057 333.067 69.8274 334.018 68.1385C334.989 66.4496 335.474 64.6733 335.474 62.8097V56.5199C335.183 56.8693 334.542 57.1896 333.552 57.4808C332.582 57.7526 331.456 57.9953 330.174 58.2088C328.913 58.4029 327.68 58.5777 326.476 58.733C325.292 58.8688 324.331 58.9853 323.593 59.0824C321.807 59.3153 320.138 59.6939 318.585 60.218C317.051 60.7228 315.809 61.4896 314.858 62.5185C313.926 63.5279 313.46 64.9062 313.46 66.6534C313.46 69.0412 314.343 70.8466 316.11 72.0696C317.896 73.2732 320.157 73.875 322.895 73.875Z" fill="#fff"/>
</svg>
